<svg xmlns="http://www.w3.org/2000/svg" version="1.1" xmlns:xlink="http://www.w3.org/1999/xlink" xmlns:svgjs="http://svgjs.com/svgjs" width="1920" height="1080" preserveAspectRatio="none" viewBox="0 0 1920 1080"><g mask="url(&quot;#SvgjsMask1022&quot;)" fill="none"><path d="M953.56 1136.12C1123.48 1108.92 1149.38 745.84 1483.87 697.28 1818.36 648.72 1849.58 319.2 2014.18 297.68" stroke="#afbed0" stroke-width="12"></path><path d="M606.06 1205.99C830.81 1173.27 956.76 643.11 1318.39 642.16 1680.03 641.21 1836.31 948.55 2030.73 955.36" stroke="#afbed0" stroke-width="12"></path><path d="M577.99 1252.29C783.33 1132.5 672.98 435.49 1050.8 427.26 1428.63 419.03 1748.26 726.01 1996.43 729.66" stroke="#afbed0" stroke-width="12"></path><path d="M314.53 1154.29C486.21 1143.77 612.51 825.06 918.31 824.44 1224.1 823.82 1220.2 959.44 1522.08 959.44 1823.97 959.44 1971.19 825.26 2125.86 824.44" stroke="#afbed0" stroke-width="12"></path><path d="M864.97 1223.71C1145.83 1081.53 1144.46 191.63 1538.09 159.52 1931.71 127.41 2032.78 393.67 2211.2 397.12" stroke="#afbed0" stroke-width="12"></path></g><defs><mask id="SvgjsMask1022"><rect width="1920" height="1080" fill="#ffffff"></rect></mask></defs></svg>